<svg width="700" height="400" viewBox="0 0 700 400" fill="none" xmlns="http://www.w3.org/2000/svg">
<circle cx="127" cy="127" r="126" fill="#34898F" stroke="black" stroke-width="2" stroke-linecap="round" stroke-linejoin="round"/>
<path d="M150.658 251.753L151.52 251L150.658 250.247L2.90781 121.209L1.25 119.761V121.962L1.25 380.038V382.239L2.90781 380.791L150.658 251.753Z" fill="#CD605F" stroke="black" stroke-width="2" stroke-linecap="round"/>
<circle cx="189" cy="127" r="126" fill="#34898F" stroke="black" stroke-width="2" stroke-linecap="round" stroke-linejoin="round"/>
<path d="M212.658 251.753L213.52 251L212.658 250.247L64.9078 121.209L63.25 119.761V121.962L63.25 380.038V382.239L64.9078 380.791L212.658 251.753Z" fill="#CD605F" stroke="black" stroke-width="2" stroke-linecap="round"/>
<path d="M201.544 370V280.4H238.024C242.888 280.4 247.283 281.637 251.208 284.112C255.219 286.501 258.419 289.787 260.808 293.968C263.197 298.149 264.392 302.8 264.392 307.92C264.392 313.04 263.197 317.691 260.808 321.872C258.419 326.053 255.219 329.424 251.208 331.984C247.283 334.459 242.888 335.696 238.024 335.696H215.368V370H201.544ZM215.368 322.384H237.768C240.072 322.384 242.163 321.744 244.04 320.464C245.917 319.099 247.411 317.349 248.52 315.216C249.715 312.997 250.312 310.565 250.312 307.92C250.312 305.275 249.715 302.885 248.52 300.752C247.411 298.619 245.917 296.912 244.04 295.632C242.163 294.352 240.072 293.712 237.768 293.712H215.368V322.384ZM269.101 370V302.8H282.413V323.92L281.133 318.8C282.072 315.557 283.65 312.613 285.869 309.968C288.173 307.323 290.776 305.232 293.677 303.696C296.664 302.16 299.736 301.392 302.893 301.392C304.344 301.392 305.709 301.52 306.989 301.776C308.354 302.032 309.421 302.331 310.189 302.672L306.733 317.008C305.709 316.581 304.557 316.24 303.277 315.984C302.082 315.643 300.888 315.472 299.693 315.472C297.389 315.472 295.17 315.941 293.037 316.88C290.989 317.733 289.154 318.971 287.533 320.592C285.997 322.128 284.76 323.963 283.821 326.096C282.882 328.144 282.413 330.405 282.413 332.88V370H269.101ZM338.971 371.28C332.059 371.28 325.915 369.829 320.539 366.928C315.248 363.941 311.067 359.888 307.995 354.768C305.008 349.648 303.515 343.76 303.515 337.104C303.515 331.813 304.368 326.992 306.075 322.64C307.782 318.288 310.128 314.533 313.115 311.376C316.187 308.133 319.814 305.659 323.995 303.952C328.262 302.16 332.87 301.264 337.819 301.264C342.171 301.264 346.224 302.117 349.979 303.824C353.734 305.445 356.976 307.707 359.707 310.608C362.523 313.509 364.656 316.965 366.107 320.976C367.643 324.901 368.368 329.211 368.283 333.904L368.155 339.536H313.243L310.299 329.04H356.763L354.843 331.216V328.144C354.587 325.328 353.648 322.811 352.027 320.592C350.406 318.373 348.358 316.624 345.883 315.344C343.408 314.064 340.72 313.424 337.819 313.424C333.211 313.424 329.328 314.32 326.171 316.112C323.014 317.819 320.624 320.379 319.003 323.792C317.382 327.12 316.571 331.259 316.571 336.208C316.571 340.901 317.552 344.997 319.515 348.496C321.478 351.909 324.251 354.555 327.835 356.432C331.419 358.309 335.558 359.248 340.251 359.248C343.579 359.248 346.651 358.693 349.467 357.584C352.368 356.475 355.483 354.469 358.811 351.568L365.467 360.912C363.419 362.96 360.902 364.752 357.915 366.288C355.014 367.824 351.899 369.061 348.571 370C345.328 370.853 342.128 371.28 338.971 371.28ZM394.771 371.28C389.139 371.28 384.062 370.299 379.539 368.336C375.016 366.373 371.262 363.472 368.275 359.632L377.235 351.952C379.795 354.939 382.568 357.115 385.555 358.48C388.627 359.76 392.083 360.4 395.923 360.4C397.459 360.4 398.867 360.229 400.147 359.888C401.512 359.461 402.664 358.864 403.603 358.096C404.627 357.328 405.395 356.432 405.907 355.408C406.419 354.299 406.675 353.104 406.675 351.824C406.675 349.605 405.864 347.813 404.243 346.448C403.39 345.851 402.024 345.211 400.147 344.528C398.355 343.76 396.008 342.992 393.107 342.224C388.158 340.944 384.104 339.493 380.947 337.872C377.79 336.251 375.358 334.416 373.651 332.368C372.371 330.747 371.432 328.997 370.835 327.12C370.238 325.157 369.939 323.024 369.939 320.72C369.939 317.904 370.536 315.344 371.731 313.04C373.011 310.651 374.718 308.603 376.851 306.896C379.07 305.104 381.63 303.739 384.531 302.8C387.518 301.861 390.675 301.392 394.003 301.392C397.16 301.392 400.275 301.819 403.347 302.672C406.504 303.525 409.406 304.763 412.051 306.384C414.696 308.005 416.915 309.925 418.707 312.144L411.155 320.464C409.534 318.843 407.742 317.435 405.779 316.24C403.902 314.96 401.982 313.979 400.019 313.296C398.056 312.613 396.264 312.272 394.643 312.272C392.851 312.272 391.23 312.443 389.779 312.784C388.328 313.125 387.091 313.637 386.067 314.32C385.128 315.003 384.403 315.856 383.891 316.88C383.379 317.904 383.123 319.056 383.123 320.336C383.208 321.445 383.464 322.512 383.891 323.536C384.403 324.475 385.086 325.285 385.939 325.968C386.878 326.651 388.286 327.376 390.163 328.144C392.04 328.912 394.43 329.637 397.331 330.32C401.598 331.429 405.096 332.667 407.827 334.032C410.643 335.312 412.862 336.805 414.483 338.512C416.19 340.133 417.384 342.011 418.067 344.144C418.75 346.277 419.091 348.667 419.091 351.312C419.091 355.152 417.982 358.608 415.763 361.68C413.63 364.667 410.728 367.013 407.059 368.72C403.39 370.427 399.294 371.28 394.771 371.28ZM445.781 371.28C440.149 371.28 435.072 370.299 430.549 368.336C426.026 366.373 422.272 363.472 419.285 359.632L428.245 351.952C430.805 354.939 433.578 357.115 436.565 358.48C439.637 359.76 443.093 360.4 446.933 360.4C448.469 360.4 449.877 360.229 451.157 359.888C452.522 359.461 453.674 358.864 454.613 358.096C455.637 357.328 456.405 356.432 456.917 355.408C457.429 354.299 457.685 353.104 457.685 351.824C457.685 349.605 456.874 347.813 455.253 346.448C454.4 345.851 453.034 345.211 451.157 344.528C449.365 343.76 447.018 342.992 444.117 342.224C439.168 340.944 435.114 339.493 431.957 337.872C428.8 336.251 426.368 334.416 424.661 332.368C423.381 330.747 422.442 328.997 421.845 327.12C421.248 325.157 420.949 323.024 420.949 320.72C420.949 317.904 421.546 315.344 422.741 313.04C424.021 310.651 425.728 308.603 427.861 306.896C430.08 305.104 432.64 303.739 435.541 302.8C438.528 301.861 441.685 301.392 445.013 301.392C448.17 301.392 451.285 301.819 454.357 302.672C457.514 303.525 460.416 304.763 463.061 306.384C465.706 308.005 467.925 309.925 469.717 312.144L462.165 320.464C460.544 318.843 458.752 317.435 456.789 316.24C454.912 314.96 452.992 313.979 451.029 313.296C449.066 312.613 447.274 312.272 445.653 312.272C443.861 312.272 442.24 312.443 440.789 312.784C439.338 313.125 438.101 313.637 437.077 314.32C436.138 315.003 435.413 315.856 434.901 316.88C434.389 317.904 434.133 319.056 434.133 320.336C434.218 321.445 434.474 322.512 434.901 323.536C435.413 324.475 436.096 325.285 436.949 325.968C437.888 326.651 439.296 327.376 441.173 328.144C443.05 328.912 445.44 329.637 448.341 330.32C452.608 331.429 456.106 332.667 458.837 334.032C461.653 335.312 463.872 336.805 465.493 338.512C467.2 340.133 468.394 342.011 469.077 344.144C469.76 346.277 470.101 348.667 470.101 351.312C470.101 355.152 468.992 358.608 466.773 361.68C464.64 364.667 461.738 367.013 458.069 368.72C454.4 370.427 450.304 371.28 445.781 371.28ZM477.719 370V280.4H514.199C519.063 280.4 523.458 281.637 527.383 284.112C531.394 286.501 534.594 289.787 536.983 293.968C539.372 298.149 540.567 302.8 540.567 307.92C540.567 313.04 539.372 317.691 536.983 321.872C534.594 326.053 531.394 329.424 527.383 331.984C523.458 334.459 519.063 335.696 514.199 335.696H491.543V370H477.719ZM491.543 322.384H513.943C516.247 322.384 518.338 321.744 520.215 320.464C522.092 319.099 523.586 317.349 524.695 315.216C525.89 312.997 526.487 310.565 526.487 307.92C526.487 305.275 525.89 302.885 524.695 300.752C523.586 298.619 522.092 296.912 520.215 295.632C518.338 294.352 516.247 293.712 513.943 293.712H491.543V322.384ZM545.532 370V275.28H558.716V370H545.532ZM591.767 371.28C586.22 371.28 581.143 369.744 576.535 366.672C572.012 363.6 568.386 359.419 565.655 354.128C562.924 348.837 561.559 342.864 561.559 336.208C561.559 329.467 562.924 323.493 565.655 318.288C568.471 312.997 572.226 308.859 576.919 305.872C581.698 302.885 587.031 301.392 592.919 301.392C596.418 301.392 599.618 301.904 602.519 302.928C605.42 303.952 607.938 305.403 610.071 307.28C612.29 309.072 614.082 311.163 615.447 313.552C616.898 315.941 617.794 318.501 618.135 321.232L615.191 320.208V302.8H628.503V370H615.191V354L618.263 353.104C617.751 355.408 616.684 357.669 615.063 359.888C613.527 362.021 611.522 363.941 609.047 365.648C606.658 367.355 603.97 368.72 600.983 369.744C598.082 370.768 595.01 371.28 591.767 371.28ZM595.223 359.12C599.234 359.12 602.775 358.139 605.847 356.176C608.919 354.213 611.308 351.525 613.015 348.112C614.807 344.613 615.703 340.645 615.703 336.208C615.703 331.856 614.807 327.973 613.015 324.56C611.308 321.147 608.919 318.459 605.847 316.496C602.775 314.533 599.234 313.552 595.223 313.552C591.298 313.552 587.799 314.533 584.727 316.496C581.74 318.459 579.351 321.147 577.559 324.56C575.852 327.973 574.999 331.856 574.999 336.208C574.999 340.645 575.852 344.613 577.559 348.112C579.351 351.525 581.74 354.213 584.727 356.176C587.799 358.139 591.298 359.12 595.223 359.12ZM646.435 399.44L660.003 368.08L660.131 378.576L626.595 302.8H641.955L662.947 352.208C663.374 353.061 663.886 354.384 664.483 356.176C665.08 357.883 665.592 359.589 666.019 361.296L662.691 362.064C663.374 360.272 664.014 358.48 664.611 356.688C665.294 354.896 665.934 353.104 666.531 351.312L684.067 302.8H699.683L672.035 370L660.643 399.44H646.435Z" fill="black"/>
</svg>
